<?xml version="1.0" encoding="UTF-8"?>
<svg xmlns="http://www.w3.org/2000/svg" viewBox="0 0 1400 950" width="1400" height="950">
  <defs>
    <marker id="arrow" viewBox="0 0 10 10" refX="9" refY="5"
            markerWidth="8" markerHeight="8" orient="auto-start-reverse">
      <path d="M2 1 L8 5 L2 9 z" fill="#374151"/>
    </marker>
    <marker id="open-arrow" viewBox="0 0 10 10" refX="9" refY="5"
            markerWidth="8" markerHeight="8" orient="auto-start-reverse">
      <path d="M2 1 L8 5 L2 9" fill="none" stroke="#374151" stroke-width="1.5"/>
    </marker>
  </defs>
  <text x="700.0" y="28" text-anchor="middle"
        font-family="DejaVu Sans" font-size="16" font-weight="700"
        fill="#1F2937">Диаграмма вариантов использования: «Изготовление шкафа-купе на заказ»</text>
  <text x="700.0" y="48" text-anchor="middle"
        font-family="DejaVu Sans" font-size="11" font-style="italic"
        fill="#666666">Use Case Diagram (UML)</text>
  <rect x="380" y="80" width="640" height="820" rx="8"
        fill="#F3F4F6" stroke="#6B7280" stroke-width="1.5" stroke-dasharray="6 4"/>
  <text x="700" y="105" text-anchor="middle" font-family="DejaVu Sans"
        font-size="13" font-weight="700" fill="#444444">
    Система «Изготовление шкафа-купе на заказ»
  </text>
  <g>
    <circle cx="60" cy="130" r="14" fill="#E8F4F8" stroke="#2C5282" stroke-width="1.6"/>
    <line x1="60" y1="144" x2="60" y2="180" stroke="#2C5282" stroke-width="1.6"/>
    <line x1="42" y1="155" x2="78" y2="155" stroke="#2C5282" stroke-width="1.6"/>
    <line x1="60" y1="180" x2="45" y2="205" stroke="#2C5282" stroke-width="1.6"/>
    <line x1="60" y1="180" x2="75" y2="205" stroke="#2C5282" stroke-width="1.6"/>
    <text x="60" y="225" text-anchor="middle" font-family="DejaVu Sans"
          font-size="13" font-weight="600" fill="#1F2937">Клиент</text>
  </g>
  <g>
    <circle cx="60" cy="290" r="14" fill="#E8F4F8" stroke="#2C5282" stroke-width="1.6"/>
    <line x1="60" y1="304" x2="60" y2="340" stroke="#2C5282" stroke-width="1.6"/>
    <line x1="42" y1="315" x2="78" y2="315" stroke="#2C5282" stroke-width="1.6"/>
    <line x1="60" y1="340" x2="45" y2="365" stroke="#2C5282" stroke-width="1.6"/>
    <line x1="60" y1="340" x2="75" y2="365" stroke="#2C5282" stroke-width="1.6"/>
    <text x="60" y="385" text-anchor="middle" font-family="DejaVu Sans"
          font-size="13" font-weight="600" fill="#1F2937">Менеджер</text>
  </g>
  <g>
    <circle cx="60" cy="450" r="14" fill="#E8F4F8" stroke="#2C5282" stroke-width="1.6"/>
    <line x1="60" y1="464" x2="60" y2="500" stroke="#2C5282" stroke-width="1.6"/>
    <line x1="42" y1="475" x2="78" y2="475" stroke="#2C5282" stroke-width="1.6"/>
    <line x1="60" y1="500" x2="45" y2="525" stroke="#2C5282" stroke-width="1.6"/>
    <line x1="60" y1="500" x2="75" y2="525" stroke="#2C5282" stroke-width="1.6"/>
    <text x="60" y="545" text-anchor="middle" font-family="DejaVu Sans"
          font-size="13" font-weight="600" fill="#1F2937">Замерщик</text>
  </g>
  <g>
    <circle cx="60" cy="610" r="14" fill="#E8F4F8" stroke="#2C5282" stroke-width="1.6"/>
    <line x1="60" y1="624" x2="60" y2="660" stroke="#2C5282" stroke-width="1.6"/>
    <line x1="42" y1="635" x2="78" y2="635" stroke="#2C5282" stroke-width="1.6"/>
    <line x1="60" y1="660" x2="45" y2="685" stroke="#2C5282" stroke-width="1.6"/>
    <line x1="60" y1="660" x2="75" y2="685" stroke="#2C5282" stroke-width="1.6"/>
    <text x="60" y="705" text-anchor="middle" font-family="DejaVu Sans"
          font-size="13" font-weight="600" fill="#1F2937">Дизайнер</text>
  </g>
  <g>
    <circle cx="1320" cy="130" r="14" fill="#E8F4F8" stroke="#2C5282" stroke-width="1.6"/>
    <line x1="1320" y1="144" x2="1320" y2="180" stroke="#2C5282" stroke-width="1.6"/>
    <line x1="1302" y1="155" x2="1338" y2="155" stroke="#2C5282" stroke-width="1.6"/>
    <line x1="1320" y1="180" x2="1305" y2="205" stroke="#2C5282" stroke-width="1.6"/>
    <line x1="1320" y1="180" x2="1335" y2="205" stroke="#2C5282" stroke-width="1.6"/>
    <text x="1320" y="225" text-anchor="middle" font-family="DejaVu Sans"
          font-size="13" font-weight="600" fill="#1F2937">Бухгалтер</text>
  </g>
  <g>
    <circle cx="1320" cy="290" r="14" fill="#E8F4F8" stroke="#2C5282" stroke-width="1.6"/>
    <line x1="1320" y1="304" x2="1320" y2="340" stroke="#2C5282" stroke-width="1.6"/>
    <line x1="1302" y1="315" x2="1338" y2="315" stroke="#2C5282" stroke-width="1.6"/>
    <line x1="1320" y1="340" x2="1305" y2="365" stroke="#2C5282" stroke-width="1.6"/>
    <line x1="1320" y1="340" x2="1335" y2="365" stroke="#2C5282" stroke-width="1.6"/>
    <text x="1320" y="385" text-anchor="middle" font-family="DejaVu Sans"
          font-size="13" font-weight="600" fill="#1F2937">Технолог</text>
  </g>
  <g>
    <circle cx="1320" cy="450" r="14" fill="#E8F4F8" stroke="#2C5282" stroke-width="1.6"/>
    <line x1="1320" y1="464" x2="1320" y2="500" stroke="#2C5282" stroke-width="1.6"/>
    <line x1="1302" y1="475" x2="1338" y2="475" stroke="#2C5282" stroke-width="1.6"/>
    <line x1="1320" y1="500" x2="1305" y2="525" stroke="#2C5282" stroke-width="1.6"/>
    <line x1="1320" y1="500" x2="1335" y2="525" stroke="#2C5282" stroke-width="1.6"/>
    <text x="1320" y="545" text-anchor="middle" font-family="DejaVu Sans"
          font-size="13" font-weight="600" fill="#1F2937">Производство</text>
  </g>
  <g>
    <circle cx="1320" cy="610" r="14" fill="#E8F4F8" stroke="#2C5282" stroke-width="1.6"/>
    <line x1="1320" y1="624" x2="1320" y2="660" stroke="#2C5282" stroke-width="1.6"/>
    <line x1="1302" y1="635" x2="1338" y2="635" stroke="#2C5282" stroke-width="1.6"/>
    <line x1="1320" y1="660" x2="1305" y2="685" stroke="#2C5282" stroke-width="1.6"/>
    <line x1="1320" y1="660" x2="1335" y2="685" stroke="#2C5282" stroke-width="1.6"/>
    <text x="1320" y="705" text-anchor="middle" font-family="DejaVu Sans"
          font-size="13" font-weight="600" fill="#1F2937">Монтажник</text>
  </g>
  <ellipse cx="530" cy="160" rx="110" ry="32"
           fill="#FEF3C7" stroke="#92400E" stroke-width="1.4"/>
  <text x="530" y="160" text-anchor="middle"
        font-family="DejaVu Sans" font-size="11" fill="#1F2937"
        dominant-baseline="middle">Оставить заявку</text>
  <ellipse cx="870" cy="160" rx="110" ry="32"
           fill="#FEF3C7" stroke="#92400E" stroke-width="1.4"/>
  <text x="870" y="160" text-anchor="middle"
        font-family="DejaVu Sans" font-size="11" fill="#1F2937"
        dominant-baseline="middle">Принять заявку</text>
  <ellipse cx="530" cy="240" rx="110" ry="32"
           fill="#FEF3C7" stroke="#92400E" stroke-width="1.4"/>
  <text x="530" y="240" text-anchor="middle"
        font-family="DejaVu Sans" font-size="11" fill="#1F2937"
        dominant-baseline="middle">Согласовать дизайн</text>
  <ellipse cx="870" cy="240" rx="110" ry="32"
           fill="#FEF3C7" stroke="#92400E" stroke-width="1.4"/>
  <text x="870" y="240" text-anchor="middle"
        font-family="DejaVu Sans" font-size="11" fill="#1F2937"
        dominant-baseline="middle">Выехать на замер</text>
  <ellipse cx="530" cy="320" rx="110" ry="32"
           fill="#FEF3C7" stroke="#92400E" stroke-width="1.4"/>
  <text x="530" y="320" text-anchor="middle"
        font-family="DejaVu Sans" font-size="11" fill="#1F2937"
        dominant-baseline="middle">Подписать договор</text>
  <ellipse cx="870" cy="320" rx="110" ry="32"
           fill="#FEF3C7" stroke="#92400E" stroke-width="1.4"/>
  <text x="870" y="320" text-anchor="middle"
        font-family="DejaVu Sans" font-size="11" fill="#1F2937"
        dominant-baseline="middle">Внести предоплату</text>
  <ellipse cx="530" cy="410" rx="130" ry="32"
           fill="#FEF3C7" stroke="#92400E" stroke-width="1.4"/>
  <text x="530" y="403" text-anchor="middle"
        font-family="DejaVu Sans" font-size="11" fill="#1F2937"
        dominant-baseline="middle">Разработать</text>
  <text x="530" y="417" text-anchor="middle"
        font-family="DejaVu Sans" font-size="11" fill="#1F2937"
        dominant-baseline="middle">проект</text>
  <ellipse cx="870" cy="410" rx="130" ry="32"
           fill="#FEF3C7" stroke="#92400E" stroke-width="1.4"/>
  <text x="870" y="403" text-anchor="middle"
        font-family="DejaVu Sans" font-size="11" fill="#1F2937"
        dominant-baseline="middle">Заказать</text>
  <text x="870" y="417" text-anchor="middle"
        font-family="DejaVu Sans" font-size="11" fill="#1F2937"
        dominant-baseline="middle">материалы</text>
  <ellipse cx="530" cy="510" rx="130" ry="32"
           fill="#FEF3C7" stroke="#92400E" stroke-width="1.4"/>
  <text x="530" y="503" text-anchor="middle"
        font-family="DejaVu Sans" font-size="11" fill="#1F2937"
        dominant-baseline="middle">Изготовить</text>
  <text x="530" y="517" text-anchor="middle"
        font-family="DejaVu Sans" font-size="11" fill="#1F2937"
        dominant-baseline="middle">детали</text>
  <ellipse cx="870" cy="510" rx="130" ry="32"
           fill="#FEF3C7" stroke="#92400E" stroke-width="1.4"/>
  <text x="870" y="503" text-anchor="middle"
        font-family="DejaVu Sans" font-size="11" fill="#1F2937"
        dominant-baseline="middle">Доставить</text>
  <text x="870" y="517" text-anchor="middle"
        font-family="DejaVu Sans" font-size="11" fill="#1F2937"
        dominant-baseline="middle">детали</text>
  <ellipse cx="530" cy="610" rx="130" ry="32"
           fill="#FEF3C7" stroke="#92400E" stroke-width="1.4"/>
  <text x="530" y="603" text-anchor="middle"
        font-family="DejaVu Sans" font-size="11" fill="#1F2937"
        dominant-baseline="middle">Собрать</text>
  <text x="530" y="617" text-anchor="middle"
        font-family="DejaVu Sans" font-size="11" fill="#1F2937"
        dominant-baseline="middle">шкаф</text>
  <ellipse cx="870" cy="610" rx="130" ry="32"
           fill="#FEF3C7" stroke="#92400E" stroke-width="1.4"/>
  <text x="870" y="603" text-anchor="middle"
        font-family="DejaVu Sans" font-size="11" fill="#1F2937"
        dominant-baseline="middle">Принять</text>
  <text x="870" y="617" text-anchor="middle"
        font-family="DejaVu Sans" font-size="11" fill="#1F2937"
        dominant-baseline="middle">работу</text>
  <ellipse cx="530" cy="710" rx="130" ry="32"
           fill="#FEF3C7" stroke="#92400E" stroke-width="1.4"/>
  <text x="530" y="703" text-anchor="middle"
        font-family="DejaVu Sans" font-size="11" fill="#1F2937"
        dominant-baseline="middle">Внести</text>
  <text x="530" y="717" text-anchor="middle"
        font-family="DejaVu Sans" font-size="11" fill="#1F2937"
        dominant-baseline="middle">доплату</text>
  <ellipse cx="870" cy="710" rx="130" ry="32"
           fill="#FEF3C7" stroke="#92400E" stroke-width="1.4"/>
  <text x="870" y="703" text-anchor="middle"
        font-family="DejaVu Sans" font-size="11" fill="#1F2937"
        dominant-baseline="middle">Выставить</text>
  <text x="870" y="717" text-anchor="middle"
        font-family="DejaVu Sans" font-size="11" fill="#1F2937"
        dominant-baseline="middle">акт</text>
  <ellipse cx="700" cy="820" rx="150" ry="32"
           fill="#FEF3C7" stroke="#92400E" stroke-width="1.4"/>
  <text x="700" y="813" text-anchor="middle"
        font-family="DejaVu Sans" font-size="11" fill="#1F2937"
        dominant-baseline="middle">Гарантийное</text>
  <text x="700" y="827" text-anchor="middle"
        font-family="DejaVu Sans" font-size="11" fill="#1F2937"
        dominant-baseline="middle">обслуживание</text>
  <line x1="78" y1="165" x2="420" y2="160"
        stroke="#374151" stroke-width="1.2"/>
  <line x1="78" y1="175" x2="420" y2="240"
        stroke="#374151" stroke-width="1.2"/>
  <line x1="78" y1="185" x2="420" y2="320"
        stroke="#374151" stroke-width="1.2"/>
  <line x1="78" y1="195" x2="420" y2="410"
        stroke="#374151" stroke-width="1.2"/>
  <line x1="78" y1="200" x2="420" y2="610"
        stroke="#374151" stroke-width="1.2"/>
  <line x1="78" y1="210" x2="420" y2="710"
        stroke="#374151" stroke-width="1.2"/>
  <line x1="78" y1="215" x2="420" y2="820"
        stroke="#374151" stroke-width="1.2"/>
  <line x1="78" y1="320" x2="420" y2="160"
        stroke="#374151" stroke-width="1.2"/>
  <line x1="78" y1="330" x2="420" y2="320"
        stroke="#374151" stroke-width="1.2"/>
  <line x1="78" y1="340" x2="420" y2="240"
        stroke="#374151" stroke-width="1.2"/>
  <line x1="78" y1="475" x2="760" y2="240"
        stroke="#374151" stroke-width="1.2"/>
  <line x1="78" y1="640" x2="420" y2="410"
        stroke="#374151" stroke-width="1.2"/>
  <line x1="1302" y1="165" x2="980" y2="160"
        stroke="#374151" stroke-width="1.2"/>
  <line x1="1302" y1="175" x2="980" y2="320"
        stroke="#374151" stroke-width="1.2"/>
  <line x1="1302" y1="185" x2="980" y2="710"
        stroke="#374151" stroke-width="1.2"/>
  <line x1="1302" y1="320" x2="980" y2="410"
        stroke="#374151" stroke-width="1.2"/>
  <line x1="1302" y1="480" x2="980" y2="510"
        stroke="#374151" stroke-width="1.2"/>
  <line x1="1302" y1="490" x2="980" y2="510"
        stroke="#374151" stroke-width="1.2"/>
  <line x1="1302" y1="640" x2="980" y2="610"
        stroke="#374151" stroke-width="1.2"/>
  <line x1="1302" y1="650" x2="660" y2="610"
        stroke="#374151" stroke-width="1.2"/></svg>